<svg xmlns="http://www.w3.org/2000/svg" viewBox="200 0 31 24" fill="none" role="img" aria-label="Bank of America">
  <path fill-rule="evenodd" clip-rule="evenodd" d="M214.19 22.9166C213.752 22.9166 213.402 22.5839 213.402 22.1524C213.402 21.7404 213.752 21.4035 214.19 21.4035C214.621 21.4035 214.965 21.7404 214.965 22.1524C214.965 22.5839 214.621 22.9166 214.19 22.9166ZM214.19 21.2188C213.652 21.2188 213.219 21.6406 213.219 22.1524C213.219 22.6814 213.652 23.1014 214.19 23.1014C214.722 23.1014 215.153 22.6814 215.153 22.1524C215.153 21.6406 214.722 21.2188 214.19 21.2188ZM214.216 22.0712C214.198 22.0709 214.18 22.0706 214.163 22.0706H213.988V21.7542H214.264C214.405 21.7542 214.527 21.769 214.527 21.9057C214.527 22.0772 214.361 22.074 214.216 22.0712ZM214.487 22.6875H214.668L214.338 22.1995C214.533 22.1928 214.681 22.1171 214.681 21.9092C214.681 21.8222 214.642 21.7279 214.561 21.6852C214.479 21.6384 214.392 21.6326 214.297 21.6326H213.832V22.6875H213.988V22.1995H214.176L214.487 22.6875Z" fill="#E31837"/>
  <path fill-rule="evenodd" clip-rule="evenodd" d="M215.336 3.66841C216.057 3.43503 216.898 3.20049 217.661 2.98773C217.8 2.94895 217.936 2.9109 218.069 2.8737C215.552 1.81431 212.412 0.703587 209.61 0C209.172 0.119671 207.827 0.490233 206.87 0.780908L207.003 0.813038C208.106 1.08082 211.205 1.83289 215.336 3.66841ZM204.134 1.72865C207.051 2.40689 211.307 3.94785 212.517 4.63732C211.673 4.99666 210.484 5.51769 209.588 5.92387C206.452 4.33638 202.805 3.32085 201.475 2.95029L201.475 2.95027C201.376 2.9228 201.29 2.89887 201.218 2.87852C201.998 2.55019 203.114 2.12116 203.959 1.79619L203.959 1.79617L204.134 1.72865ZM231.003 9.69911C225.812 11.7101 216.347 17.3314 209.61 23.0997C208.442 22.1471 207.212 21.1955 206.019 20.3302C213.023 14.7718 220.848 9.8499 227.541 7.64193C228.942 8.44465 230.195 9.18385 231.003 9.69911ZM201.398 16.9726C200.758 16.5252 200.12 16.0793 199.516 15.7119C208.752 8.51267 216.528 5.39192 221.109 4.22794C221.966 4.64758 222.693 5.01634 223.435 5.39263C223.71 5.53218 223.987 5.67276 224.273 5.81735C216.648 8.19793 209.722 12.4201 202.698 17.864C202.27 17.5823 201.834 17.2771 201.398 16.9726Z" fill="#E31837"/>
  <path fill-rule="evenodd" clip-rule="evenodd" d="M188.336 9.69602C190.483 8.336 194.407 5.95157 198.175 4.21875C198.325 4.26397 198.496 4.31433 198.684 4.36954C199.292 4.54861 200.073 4.77866 200.88 5.04939C199.39 5.70164 195.672 7.6475 190.932 10.859C190.213 10.5059 189.628 10.255 189.089 10.0238C188.831 9.91305 188.583 9.80681 188.336 9.69602ZM204.306 6.41959C205.007 6.72913 205.782 7.07135 206.519 7.41393C202.931 9.22728 199.687 11.4824 196.475 13.8627C196.132 13.6693 195.797 13.4768 195.469 13.2883C194.812 12.9107 194.182 12.5493 193.575 12.23C197.751 9.26065 201.044 7.35201 203.585 6.10044C203.812 6.20161 204.055 6.3085 204.306 6.41959Z" fill="#012169"/>
</svg>
